<?xml version="1.0" encoding="UTF-8"?>
<svg id="Layer_1" xmlns="http://www.w3.org/2000/svg" version="1.1" viewBox="0 0 39.9 26">
  <!-- Generator: Adobe Illustrator 30.1.0, SVG Export Plug-In . SVG Version: 2.1.1 Build 136)  -->
  <defs>
    <style>
      .st0 {
        fill: #f7f7f7;
      }
    </style>
  </defs>
  <path class="st0" d="M6.5,23.8c-1.9-1.1-3.4-2.7-4.6-4.6C.8,17.3.2,15.2.2,12.9s.6-4.3,1.7-6.3c1.1-1.9,2.6-3.4,4.6-4.6s4-1.5,6.3-1.5v25.1c-2.3,0-4.3-.6-6.3-1.7h0Z"/>
  <path class="st0" d="M17.8,11.2c-.9-.5-1.6-1.2-2.1-2.1s-.8-1.9-.8-2.9.3-2,.8-2.9,1.2-1.6,2.1-2.1c.9-.5,1.9-.8,2.9-.8s2,.3,2.9.8,1.6,1.2,2.1,2.1c.5.9.8,1.9.8,2.9s-.3,2-.8,2.9-1.2,1.6-2.1,2.1-1.9.8-2.9.8-2-.3-2.9-.8ZM17.8,24.9c-.9-.5-1.6-1.2-2.1-2.1s-.8-1.9-.8-2.9.3-2.1.8-3,1.2-1.6,2.1-2.1,1.9-.8,2.9-.8,2,.3,2.9.8,1.6,1.2,2.1,2.1c.5.9.8,1.9.8,3s-.3,2-.8,2.9-1.2,1.6-2.1,2.1-1.9.8-2.9.8-2-.3-2.9-.8Z"/>
  <path class="st0" d="M27.2,25.5L33.5.5l6.3,25h-12.6Z"/>
</svg>