<svg width="20" height="22" viewBox="0 0 20 22" fill="none" xmlns="http://www.w3.org/2000/svg">
<path d="M10 0C10.4142 3.62117e-08 10.75 0.336763 10.75 0.750977V8.50098C10.7503 9.60532 11.6456 10.501 12.75 10.501H19.25C19.6642 10.501 20 10.8368 20 11.251C19.9997 11.665 19.6641 12.001 19.25 12.001L12.75 12C11.6454 12 10.75 12.8964 10.75 14.001V21.251C10.7499 21.6651 10.4142 22.001 10 22.001C9.58583 22.001 9.25007 21.6651 9.25 21.251V14.001C9.25 12.8964 8.35457 12.001 7.25 12.001L0.75 12C0.335787 12 -3.62104e-08 11.6642 0 11.25C0.000263284 10.836 0.335949 10.5 0.75 10.5L7.25 10.501C8.35441 10.501 9.24974 9.60532 9.25 8.50098V0.750977C9.25 0.336763 9.58579 4.78891e-07 10 0Z" fill="#575757"/>
</svg>
