<svg width="20" height="20" viewBox="0 0 20 20" fill="none" xmlns="http://www.w3.org/2000/svg">
<path d="M10 0C10.4142 3.62115e-08 10.75 0.335811 10.75 0.750025V7.25C10.7503 8.35435 11.6456 9.25 12.75 9.25H19.25C19.6642 9.25 20 9.58579 20 10C19.9997 10.414 19.6641 10.75 19.25 10.75H12.75C11.6454 10.75 10.75 11.6454 10.75 12.75V19.25C10.7499 19.6641 10.4142 20 10 20C9.58583 20 9.25007 19.6641 9.25 19.25V12.75C9.25 11.6454 8.35457 10.75 7.25 10.75H0.75C0.335787 10.75 -3.62124e-08 10.4142 0 10C0.000263284 9.58601 0.335949 9.25 0.75 9.25H7.25C8.35441 9.25 9.24974 8.35435 9.25 7.25V0.750025C9.25 0.335811 9.58579 4.78892e-07 10 0Z" fill="#575757"/>
</svg>
