<svg preserveAspectRatio="none" width="100%" height="100%" overflow="visible" style="display: block;" viewBox="0 0 623.193 92.16" fill="none" xmlns="http://www.w3.org/2000/svg">
<g id="Container">
<path id="Vector" d="M604.633 71.6797H623.193V92.1597H604.633V71.6797Z" fill="var(--fill-0, #131313)"/>
<path id="Vector_2" d="M563.023 90.8773V1.27734L598.863 1.27734V17.9173H582.095V36.4774H593.231V55.6773H582.095V74.3654H598.863V90.8773H563.023Z" fill="var(--fill-0, #131313)"/>
<path id="Vector_3" d="M516.102 90.8773V1.27734L535.174 1.27734V26.8773H536.454L541.702 1.27734L560.902 1.27734V3.83734L548.102 40.1894V42.1093L560.902 88.3174V90.8773H541.702L536.454 63.2293H535.174V90.8773H516.102Z" fill="var(--fill-0, #131313)"/>
<path id="Vector_4" d="M490.33 92.16C486.234 92.16 482.479 91.1787 479.066 89.216C475.652 87.168 472.922 84.48 470.874 81.152C468.911 77.7387 467.93 73.9413 467.93 69.76V22.4C467.93 18.2187 468.911 14.464 470.874 11.136C472.922 7.72265 475.652 5.03466 479.066 3.07199C482.479 1.02399 486.234 0 490.33 0C494.426 0 498.18 1.02399 501.594 3.07199C505.007 5.03466 507.695 7.72265 509.658 11.136C511.706 14.464 512.73 18.2187 512.73 22.4V69.76C512.73 73.9413 511.706 77.7387 509.658 81.152C507.695 84.48 505.007 87.168 501.594 89.216C498.18 91.1787 494.426 92.16 490.33 92.16ZM490.33 75.264C491.268 75.264 492.036 74.9653 492.634 74.368C493.231 73.6853 493.53 72.9173 493.53 72.064V19.968C493.53 19.0294 493.231 18.2613 492.634 17.664C492.036 16.9813 491.268 16.64 490.33 16.64C489.391 16.64 488.58 16.9813 487.898 17.664C487.3 18.2613 487.002 19.0294 487.002 19.968V72.064C487.002 72.9173 487.3 73.6853 487.898 74.368C488.58 74.9653 489.391 75.264 490.33 75.264Z" fill="var(--fill-0, #131313)"/>
<path id="Vector_5" d="M421.125 90.8773V1.27734L440.965 1.27734C445.573 1.27734 449.754 2.38668 453.509 4.60535C457.264 6.82402 460.25 9.81067 462.469 13.5653C464.773 17.32 465.925 21.5013 465.925 26.1093V41.4694C465.925 46.0774 464.773 50.2587 462.469 54.0133C460.25 57.768 457.264 60.7547 453.509 62.9734C449.754 65.192 445.573 66.3014 440.965 66.3014H440.197V90.8773H421.125ZM440.197 49.6613H440.581C441.69 49.6613 442.714 49.5333 443.653 49.2773C444.592 49.0213 445.317 48.296 445.829 47.1013C446.426 45.9067 446.725 43.9014 446.725 41.0854V26.6213C446.725 23.72 446.426 21.672 445.829 20.4774C445.317 19.2827 444.592 18.5574 443.653 18.3014C442.714 18.0454 441.69 17.9173 440.581 17.9173H440.197V49.6613Z" fill="var(--fill-0, #131313)"/>
<path id="Vector_6" d="M395.478 92.16C391.382 92.16 387.627 91.1787 384.214 89.216C380.801 87.168 378.07 84.48 376.022 81.152C374.059 77.7387 373.078 73.9413 373.078 69.76V59.52H392.15V70.4C392.15 71.2533 392.449 72.064 393.046 72.832C393.729 73.5147 394.539 73.856 395.478 73.856C396.417 73.856 397.227 73.5147 397.91 72.832C398.593 72.064 398.934 71.2533 398.934 70.4C398.934 69.632 398.849 68.992 398.678 68.48C398.507 67.8827 398.123 67.1147 397.526 66.176L382.166 41.088C381.057 39.2107 379.777 37.248 378.326 35.2C376.875 33.0667 375.638 30.976 374.614 28.928C373.59 26.7947 373.078 24.7893 373.078 22.912V22.4C373.078 18.2187 374.059 14.464 376.022 11.136C378.07 7.72265 380.801 5.03466 384.214 3.07199C387.627 1.02399 391.382 0 395.478 0C399.659 0 403.414 1.02399 406.742 3.07199C410.155 5.03466 412.843 7.72265 414.806 11.136C416.854 14.464 417.878 18.2187 417.878 22.4V31.488H398.934V21.632C398.934 20.6933 398.593 19.8827 397.91 19.2C397.227 18.5173 396.417 18.176 395.478 18.176C394.625 18.176 393.857 18.5173 393.174 19.2C392.491 19.8827 392.15 20.6933 392.15 21.632C392.15 22.2293 392.235 22.7413 392.406 23.168C392.662 23.5093 393.003 24.064 393.43 24.832L409.302 50.048C411.265 53.2053 413.185 56.3627 415.062 59.52C416.939 62.592 417.878 65.8347 417.878 69.248V69.76C417.878 73.9413 416.854 77.7387 414.806 81.152C412.843 84.48 410.155 87.168 406.742 89.216C403.414 91.1787 399.659 92.16 395.478 92.16Z" fill="var(--fill-0, #131313)"/>
<path id="Vector_7" d="M336.648 90.8773V1.27734L372.488 1.27734V17.9173H355.72V36.4774H366.856V55.6773H355.72V74.3654H372.488V90.8773H336.648Z" fill="var(--fill-0, #131313)"/>
<path id="Vector_8" d="M288.602 90.8773V1.27734L311.002 1.27734C315.183 1.27734 318.938 2.25868 322.266 4.22134C325.679 6.09868 328.367 8.65867 330.33 11.9013C332.378 15.144 333.402 18.856 333.402 23.0374C333.402 25.256 332.932 27.56 331.994 29.9493C331.055 32.2533 329.732 34.3014 328.026 36.0934C326.319 37.8854 324.271 39.1227 321.882 39.8054V41.0854C325.38 42.4507 328.154 44.6694 330.202 47.7414C332.335 50.8134 333.402 53.9707 333.402 57.2133V68.4774C333.402 72.6587 332.378 76.456 330.33 79.8694C328.367 83.1974 325.679 85.8853 322.266 87.9333C318.938 89.896 315.183 90.8773 311.002 90.8773H288.602ZM307.674 29.3094H309.21C310.575 29.3094 311.727 28.7973 312.666 27.7733C313.69 26.664 314.202 25.2987 314.202 23.6773C314.202 22.056 313.69 20.6907 312.666 19.5813C311.727 18.472 310.575 17.9173 309.21 17.9173H307.674V29.3094ZM307.674 74.3654H308.57C310.106 74.3654 311.428 73.512 312.538 71.8054C313.647 70.0987 314.202 68.0507 314.202 65.6613V59.7733C314.202 57.2987 313.647 55.2507 312.538 53.6294C311.428 51.9227 310.106 51.0693 308.57 51.0693H307.674V74.3654Z" fill="var(--fill-0, #131313)"/>
<path id="Vector_9" d="M239.275 92.16C235.179 92.16 231.424 91.1787 228.011 89.216C224.598 87.168 221.867 84.48 219.819 81.152C217.856 77.7387 216.875 73.9413 216.875 69.76V59.52H235.947V70.4C235.947 71.2533 236.246 72.064 236.843 72.832C237.526 73.5147 238.336 73.856 239.275 73.856C240.214 73.856 241.024 73.5147 241.707 72.832C242.39 72.064 242.731 71.2533 242.731 70.4C242.731 69.632 242.646 68.992 242.475 68.48C242.304 67.8827 241.92 67.1147 241.323 66.176L225.963 41.088C224.854 39.2107 223.574 37.248 222.123 35.2C220.672 33.0667 219.435 30.976 218.411 28.928C217.387 26.7947 216.875 24.7893 216.875 22.912V22.4C216.875 18.2187 217.856 14.464 219.819 11.136C221.867 7.72265 224.598 5.03466 228.011 3.07199C231.424 1.02399 235.179 0 239.275 0C243.456 0 247.211 1.02399 250.539 3.07199C253.952 5.03466 256.64 7.72265 258.603 11.136C260.651 14.464 261.675 18.2187 261.675 22.4V31.488H242.731V21.632C242.731 20.6933 242.39 19.8827 241.707 19.2C241.024 18.5173 240.214 18.176 239.275 18.176C238.422 18.176 237.654 18.5173 236.971 19.2C236.288 19.8827 235.947 20.6933 235.947 21.632C235.947 22.2293 236.032 22.7413 236.203 23.168C236.459 23.5093 236.8 24.064 237.227 24.832L253.099 50.048C255.062 53.2053 256.982 56.3627 258.859 59.52C260.736 62.592 261.675 65.8347 261.675 69.248V69.76C261.675 73.9413 260.651 77.7387 258.603 81.152C256.64 84.48 253.952 87.168 250.539 89.216C247.211 91.1787 243.456 92.16 239.275 92.16Z" fill="var(--fill-0, #131313)"/>
<path id="Vector_10" d="M186.756 90.8773V51.0693L173.828 3.19736V1.27734L192.9 1.27734L195.46 34.5573H197.124L199.684 1.27734L218.628 1.27734V3.19736L205.828 51.0693V90.8773H186.756Z" fill="var(--fill-0, #131313)"/>
<path id="Vector_11" d="M137.273 90.8773L148.153 1.27734L171.193 1.27734L182.073 90.8773H164.153L163.001 74.3654H156.217L155.321 90.8773H137.273ZM157.241 55.1653H162.105L160.825 26.8773H158.649L157.241 55.1653Z" fill="var(--fill-0, #131313)"/>
<path id="Vector_12" d="M88.8586 90.8773L83.2266 3.19736V1.27734L97.4346 1.27734L99.2266 41.0854H100.891L105.627 1.27734L116.763 1.27734L121.499 41.0854H123.163L124.955 1.27734L139.163 1.27734V3.19736L133.659 90.8773H114.331L112.283 58.8773H110.235L108.059 90.8773H88.8586Z" fill="var(--fill-0, #131313)"/>
<path id="Vector_13" d="M46.8047 90.8773V1.27734L65.8767 1.27734V74.3654H82.6447V90.8773H46.8047Z" fill="var(--fill-0, #131313)"/>
<path id="Vector_14" d="M0 90.8773L10.88 1.27734L33.92 1.27734L44.8 90.8773H26.88L25.728 74.3654H18.944L18.048 90.8773H0ZM19.968 55.1653H24.832L23.552 26.8773H21.376L19.968 55.1653Z" fill="var(--fill-0, #131313)"/>
</g>
</svg>
