<svg width="11" height="12" viewBox="0 0 11 12" fill="none" xmlns="http://www.w3.org/2000/svg">
<path d="M10.25 0C10.6642 0 11 0.335786 11 0.75C11 1.16421 10.6642 1.5 10.25 1.5H3.07C2.53823 1.5 2.27235 1.5 2.06713 1.59854C1.86222 1.69694 1.69694 1.86222 1.59854 2.06713C1.5 2.27235 1.5 2.53823 1.5 3.07V11.25C1.5 11.6642 1.16421 12 0.75 12C0.335786 12 0 11.6642 0 11.25V3.14C0 2.07646 0 1.54469 0.19709 1.13425C0.393884 0.724432 0.724432 0.393884 1.13425 0.19709C1.54469 0 2.07646 0 3.14 0H10.25Z" fill="#575757"/>
</svg>
