<svg width="94" height="94" viewBox="0 0 94 94" fill="none" xmlns="http://www.w3.org/2000/svg">
<g clip-path="url(#clip0_971_15503)">
<rect width="93.25" height="93.25" rx="2" fill="#FF0CF0"/>
<path d="M0 0H88.02V93.25H0V0Z" fill="#FFBF00"/>
<path d="M7.10916 89.46C6.40916 89.46 5.78849 89.306 5.24716 88.998C4.71516 88.6807 4.29982 88.2327 4.00116 87.654C3.94516 87.514 3.88449 87.3787 3.81916 87.248L4.93916 86.842L4.98116 86.94C5.02782 87.052 5.05582 87.1173 5.06516 87.136C5.27982 87.5653 5.55982 87.8873 5.90516 88.102C6.25982 88.3073 6.66116 88.41 7.10916 88.41C7.93049 88.41 8.55582 88.0367 8.98516 87.29C9.41449 86.534 9.62916 85.5167 9.62916 84.238C9.62916 84.0047 9.62916 83.776 9.62916 83.552L9.61516 83.286L9.83916 83.356C9.62449 84.056 9.26049 84.602 8.74716 84.994C8.24316 85.386 7.63649 85.582 6.92716 85.582C6.34849 85.582 5.82582 85.4513 5.35916 85.19C4.90182 84.9287 4.53782 84.5693 4.26716 84.112C4.00582 83.6547 3.87516 83.132 3.87516 82.544C3.87516 81.9187 4.01516 81.354 4.29516 80.85C4.58449 80.346 4.98582 79.954 5.49916 79.674C6.02182 79.3847 6.60982 79.24 7.26316 79.24C8.00982 79.24 8.65382 79.436 9.19516 79.828C9.74582 80.22 10.1658 80.7847 10.4552 81.522C10.7538 82.25 10.9032 83.104 10.9032 84.084C10.9032 85.1667 10.7492 86.114 10.4412 86.926C10.1425 87.7287 9.70382 88.354 9.12516 88.802C8.55582 89.2407 7.88382 89.46 7.10916 89.46ZM7.22116 84.616C7.64116 84.616 8.01916 84.5227 8.35516 84.336C8.69116 84.14 8.95249 83.8787 9.13916 83.552C9.33516 83.2253 9.43316 82.8613 9.43316 82.46C9.43316 82.0493 9.33982 81.6807 9.15316 81.354C8.97582 81.018 8.71916 80.7567 8.38316 80.57C8.05649 80.374 7.67849 80.276 7.24916 80.276C6.81049 80.276 6.42782 80.374 6.10116 80.57C5.78382 80.7567 5.54116 81.0227 5.37316 81.368C5.20516 81.704 5.12116 82.0867 5.12116 82.516C5.12116 83.132 5.31716 83.636 5.70916 84.028C6.10116 84.42 6.60516 84.616 7.22116 84.616Z" fill="#F7F7F7"/>
<path d="M17.1765 80.248L17.9045 80.234L12.9205 85.96L12.8505 85.442H20.0185V86.422H12.3745V85.106L17.5125 79.31H18.3665V89.25H17.1765V80.248Z" fill="#F7F7F7"/>
<path d="M29.5512 79.45H30.6712L24.7912 89.25H23.6712L29.5512 79.45ZM23.4052 85.386C22.9572 85.386 22.5605 85.2553 22.2152 84.994C21.8698 84.7327 21.5992 84.3687 21.4032 83.902C21.2072 83.426 21.1092 82.8893 21.1092 82.292C21.1092 81.704 21.2072 81.1767 21.4032 80.71C21.5992 80.2433 21.8698 79.8793 22.2152 79.618C22.5605 79.3567 22.9572 79.226 23.4052 79.226C23.8532 79.226 24.2452 79.3567 24.5812 79.618C24.9265 79.8793 25.1972 80.2433 25.3932 80.71C25.5892 81.1673 25.6872 81.6947 25.6872 82.292C25.6872 82.8893 25.5892 83.426 25.3932 83.902C25.2065 84.3687 24.9405 84.7327 24.5952 84.994C24.2498 85.2553 23.8532 85.386 23.4052 85.386ZM23.4052 84.532C23.6478 84.532 23.8578 84.4433 24.0352 84.266C24.2218 84.0887 24.3618 83.832 24.4552 83.496C24.5485 83.16 24.5952 82.7587 24.5952 82.292C24.5952 81.592 24.4878 81.0507 24.2732 80.668C24.0678 80.276 23.7785 80.08 23.4052 80.08C23.1532 80.08 22.9385 80.1687 22.7612 80.346C22.5838 80.514 22.4485 80.766 22.3552 81.102C22.2618 81.4287 22.2152 81.8253 22.2152 82.292C22.2152 83.0013 22.3178 83.552 22.5232 83.944C22.7378 84.336 23.0318 84.532 23.4052 84.532ZM30.9792 89.46C30.5312 89.46 30.1345 89.3293 29.7892 89.068C29.4438 88.8067 29.1732 88.4427 28.9772 87.976C28.7812 87.5 28.6832 86.9633 28.6832 86.366C28.6832 85.778 28.7812 85.2507 28.9772 84.784C29.1732 84.3173 29.4438 83.9533 29.7892 83.692C30.1345 83.4307 30.5312 83.3 30.9792 83.3C31.4272 83.3 31.8192 83.4307 32.1552 83.692C32.5005 83.9533 32.7712 84.3173 32.9672 84.784C33.1632 85.2413 33.2612 85.7687 33.2612 86.366C33.2612 86.9633 33.1632 87.5 32.9672 87.976C32.7805 88.4427 32.5145 88.8067 32.1692 89.068C31.8238 89.3293 31.4272 89.46 30.9792 89.46ZM30.9792 88.606C31.2218 88.606 31.4318 88.5173 31.6092 88.34C31.7958 88.1627 31.9358 87.906 32.0292 87.57C32.1225 87.234 32.1692 86.8327 32.1692 86.366C32.1692 85.666 32.0618 85.1247 31.8472 84.742C31.6418 84.35 31.3525 84.154 30.9792 84.154C30.7272 84.154 30.5125 84.2427 30.3352 84.42C30.1578 84.588 30.0225 84.84 29.9292 85.176C29.8358 85.5027 29.7892 85.8993 29.7892 86.366C29.7892 87.0753 29.8918 87.626 30.0972 88.018C30.3118 88.41 30.6058 88.606 30.9792 88.606Z" fill="#F7F7F7"/>
</g>
<defs>
<clipPath id="clip0_971_15503">
<rect width="93.25" height="93.25" rx="2" fill="white"/>
</clipPath>
</defs>
</svg>
