<svg width="85" height="85" viewBox="0 0 85 85" fill="none" xmlns="http://www.w3.org/2000/svg">
<path d="M0 2C0 0.89543 0.895431 0 2 0H38C39.1046 0 40 0.895431 40 2V85H0V2Z" fill="#FF0CF0"/>
<path d="M7.3592 81.3155C6.69654 81.3155 6.09454 81.1895 5.5532 80.9375C5.0212 80.6855 4.6012 80.3401 4.2932 79.9015C3.99454 79.4535 3.8452 78.9588 3.8452 78.4175C3.8452 77.8948 3.98054 77.4375 4.2512 77.0455C4.52187 76.6535 4.91854 76.3501 5.4412 76.1355C5.9732 75.9208 6.61254 75.8135 7.3592 75.8135C8.4792 75.8135 9.3472 76.0515 9.9632 76.5275C10.5885 76.9941 10.9012 77.6241 10.9012 78.4175C10.9012 78.9588 10.7472 79.4535 10.4392 79.9015C10.1312 80.3401 9.70654 80.6855 9.1652 80.9375C8.62387 81.1895 8.02187 81.3155 7.3592 81.3155ZM7.3592 80.2935C8.04054 80.2935 8.58654 80.1208 8.9972 79.7755C9.4172 79.4208 9.6272 78.9541 9.6272 78.3755C9.6272 77.8061 9.4172 77.3441 8.9972 76.9895C8.58654 76.6348 8.04054 76.4575 7.3592 76.4575C6.92054 76.4575 6.52854 76.5415 6.1832 76.7095C5.83787 76.8681 5.57187 77.0921 5.3852 77.3815C5.19854 77.6708 5.1052 78.0021 5.1052 78.3755C5.1052 78.9448 5.31054 79.4068 5.7212 79.7615C6.1412 80.1161 6.6872 80.2935 7.3592 80.2935ZM7.3592 76.0655C6.7152 76.0655 6.14587 75.9721 5.6512 75.7855C5.16587 75.5988 4.78787 75.3328 4.5172 74.9875C4.24654 74.6421 4.1112 74.2455 4.1112 73.7975C4.1112 73.2935 4.2512 72.8361 4.5312 72.4255C4.82054 72.0148 5.21254 71.6928 5.7072 71.4595C6.20187 71.2168 6.75254 71.0955 7.3592 71.0955C7.9752 71.0955 8.53054 71.2168 9.0252 71.4595C9.51987 71.6928 9.9072 72.0148 10.1872 72.4255C10.4765 72.8361 10.6212 73.2935 10.6212 73.7975C10.6212 74.2455 10.4859 74.6421 10.2152 74.9875C9.94454 75.3328 9.56187 75.5988 9.0672 75.7855C8.58187 75.9721 8.01254 76.0655 7.3592 76.0655ZM7.3592 75.5195C7.95654 75.5195 8.4372 75.3608 8.8012 75.0435C9.17454 74.7261 9.3612 74.3201 9.3612 73.8255C9.3612 73.3028 9.17454 72.8875 8.8012 72.5795C8.4372 72.2715 7.95654 72.1175 7.3592 72.1175C6.76187 72.1175 6.2812 72.2715 5.9172 72.5795C5.5532 72.8875 5.3712 73.3028 5.3712 73.8255C5.3712 74.3295 5.5532 74.7401 5.9172 75.0575C6.29054 75.3655 6.7712 75.5195 7.3592 75.5195Z" fill="#F7F7F7"/>
<path d="M16.2368 81.3155C15.4808 81.3155 14.8228 81.1241 14.2628 80.7415C13.7122 80.3495 13.2875 79.7895 12.9888 79.0615C12.6995 78.3335 12.5548 77.4701 12.5548 76.4715C12.5548 75.3701 12.7135 74.4135 13.0308 73.6015C13.3575 72.7895 13.8148 72.1688 14.4028 71.7395C15.0002 71.3101 15.6955 71.0955 16.4888 71.0955C17.1422 71.0955 17.7208 71.2541 18.2248 71.5715C18.7288 71.8888 19.1255 72.3181 19.4148 72.8595C19.4615 72.9528 19.5082 73.0461 19.5548 73.1395L18.4208 73.6015C18.3928 73.5268 18.3648 73.4521 18.3368 73.3775C18.1502 72.9761 17.8935 72.6728 17.5668 72.4675C17.2495 72.2528 16.8902 72.1455 16.4888 72.1455C15.6302 72.1455 14.9675 72.5188 14.5008 73.2655C14.0435 74.0121 13.8148 75.0481 13.8148 76.3735C13.8148 76.5041 13.8148 76.6021 13.8148 76.6675C13.8148 76.7235 13.8148 76.8121 13.8148 76.9335L13.8288 77.2135L13.5768 77.1295C13.8102 76.4015 14.1882 75.8321 14.7108 75.4215C15.2335 75.0108 15.8588 74.8055 16.5868 74.8055C17.1748 74.8055 17.7022 74.9408 18.1688 75.2115C18.6355 75.4728 18.9995 75.8461 19.2608 76.3315C19.5315 76.8075 19.6668 77.3488 19.6668 77.9555C19.6668 78.5808 19.5175 79.1501 19.2188 79.6635C18.9295 80.1768 18.5235 80.5828 18.0008 80.8815C17.4782 81.1708 16.8902 81.3155 16.2368 81.3155ZM16.2508 80.2935C16.6615 80.2935 17.0302 80.1908 17.3568 79.9855C17.6835 79.7801 17.9355 79.5048 18.1128 79.1595C18.2995 78.8048 18.3928 78.4081 18.3928 77.9695C18.3928 77.3068 18.1968 76.7748 17.8048 76.3735C17.4128 75.9721 16.8902 75.7715 16.2368 75.7715C15.8262 75.7715 15.4482 75.8695 15.1028 76.0655C14.7668 76.2615 14.5008 76.5275 14.3048 76.8635C14.1088 77.1995 14.0108 77.5681 14.0108 77.9695C14.0108 78.4081 14.1042 78.8048 14.2908 79.1595C14.4775 79.5141 14.7388 79.7941 15.0748 79.9995C15.4202 80.1955 15.8122 80.2935 16.2508 80.2935Z" fill="#F7F7F7"/>
<path d="M29.4672 71.3055H30.5872L24.7072 81.1055H23.5872L29.4672 71.3055ZM23.3212 77.2415C22.8732 77.2415 22.4765 77.1108 22.1312 76.8495C21.7858 76.5881 21.5152 76.2241 21.3192 75.7575C21.1232 75.2815 21.0252 74.7448 21.0252 74.1475C21.0252 73.5595 21.1232 73.0321 21.3192 72.5655C21.5152 72.0988 21.7858 71.7348 22.1312 71.4735C22.4765 71.2121 22.8732 71.0815 23.3212 71.0815C23.7692 71.0815 24.1612 71.2121 24.4972 71.4735C24.8425 71.7348 25.1132 72.0988 25.3092 72.5655C25.5052 73.0228 25.6032 73.5501 25.6032 74.1475C25.6032 74.7448 25.5052 75.2815 25.3092 75.7575C25.1225 76.2241 24.8565 76.5881 24.5112 76.8495C24.1658 77.1108 23.7692 77.2415 23.3212 77.2415ZM23.3212 76.3875C23.5638 76.3875 23.7738 76.2988 23.9512 76.1215C24.1378 75.9441 24.2778 75.6875 24.3712 75.3515C24.4645 75.0155 24.5112 74.6141 24.5112 74.1475C24.5112 73.4475 24.4038 72.9061 24.1892 72.5235C23.9838 72.1315 23.6945 71.9355 23.3212 71.9355C23.0692 71.9355 22.8545 72.0241 22.6772 72.2015C22.4998 72.3695 22.3645 72.6215 22.2712 72.9575C22.1778 73.2841 22.1312 73.6808 22.1312 74.1475C22.1312 74.8568 22.2338 75.4075 22.4392 75.7995C22.6538 76.1915 22.9478 76.3875 23.3212 76.3875ZM30.8952 81.3155C30.4472 81.3155 30.0505 81.1848 29.7052 80.9235C29.3598 80.6621 29.0892 80.2981 28.8932 79.8315C28.6972 79.3555 28.5992 78.8188 28.5992 78.2215C28.5992 77.6335 28.6972 77.1061 28.8932 76.6395C29.0892 76.1728 29.3598 75.8088 29.7052 75.5475C30.0505 75.2861 30.4472 75.1555 30.8952 75.1555C31.3432 75.1555 31.7352 75.2861 32.0712 75.5475C32.4165 75.8088 32.6872 76.1728 32.8832 76.6395C33.0792 77.0968 33.1772 77.6241 33.1772 78.2215C33.1772 78.8188 33.0792 79.3555 32.8832 79.8315C32.6965 80.2981 32.4305 80.6621 32.0852 80.9235C31.7398 81.1848 31.3432 81.3155 30.8952 81.3155ZM30.8952 80.4615C31.1378 80.4615 31.3478 80.3728 31.5252 80.1955C31.7118 80.0181 31.8518 79.7615 31.9452 79.4255C32.0385 79.0895 32.0852 78.6881 32.0852 78.2215C32.0852 77.5215 31.9778 76.9801 31.7632 76.5975C31.5578 76.2055 31.2685 76.0095 30.8952 76.0095C30.6432 76.0095 30.4285 76.0981 30.2512 76.2755C30.0738 76.4435 29.9385 76.6955 29.8452 77.0315C29.7518 77.3581 29.7052 77.7548 29.7052 78.2215C29.7052 78.9308 29.8078 79.4815 30.0132 79.8735C30.2278 80.2655 30.5218 80.4615 30.8952 80.4615Z" fill="#F7F7F7"/>
<path d="M45 36C45 34.8954 45.8954 34 47 34H83C84.1046 34 85 34.8954 85 36V85H45V36Z" fill="#FFBF00"/>
<path d="M52.5552 81.3155C51.7992 81.3155 51.1412 81.1241 50.5812 80.7415C50.0305 80.3495 49.6059 79.7895 49.3072 79.0615C49.0179 78.3335 48.8732 77.4701 48.8732 76.4715C48.8732 75.3701 49.0319 74.4135 49.3492 73.6015C49.6759 72.7895 50.1332 72.1688 50.7212 71.7395C51.3185 71.3101 52.0139 71.0955 52.8072 71.0955C53.4605 71.0955 54.0392 71.2541 54.5432 71.5715C55.0472 71.8888 55.4439 72.3181 55.7332 72.8595C55.7799 72.9528 55.8265 73.0461 55.8732 73.1395L54.7392 73.6015C54.7112 73.5268 54.6832 73.4521 54.6552 73.3775C54.4685 72.9761 54.2119 72.6728 53.8852 72.4675C53.5679 72.2528 53.2085 72.1455 52.8072 72.1455C51.9485 72.1455 51.2859 72.5188 50.8192 73.2655C50.3619 74.0121 50.1332 75.0481 50.1332 76.3735C50.1332 76.5041 50.1332 76.6021 50.1332 76.6675C50.1332 76.7235 50.1332 76.8121 50.1332 76.9335L50.1472 77.2135L49.8952 77.1295C50.1285 76.4015 50.5065 75.8321 51.0292 75.4215C51.5519 75.0108 52.1772 74.8055 52.9052 74.8055C53.4932 74.8055 54.0205 74.9408 54.4872 75.2115C54.9539 75.4728 55.3179 75.8461 55.5792 76.3315C55.8499 76.8075 55.9852 77.3488 55.9852 77.9555C55.9852 78.5808 55.8359 79.1501 55.5372 79.6635C55.2479 80.1768 54.8419 80.5828 54.3192 80.8815C53.7965 81.1708 53.2085 81.3155 52.5552 81.3155ZM52.5692 80.2935C52.9799 80.2935 53.3485 80.1908 53.6752 79.9855C54.0019 79.7801 54.2539 79.5048 54.4312 79.1595C54.6179 78.8048 54.7112 78.4081 54.7112 77.9695C54.7112 77.3068 54.5152 76.7748 54.1232 76.3735C53.7312 75.9721 53.2085 75.7715 52.5552 75.7715C52.1445 75.7715 51.7665 75.8695 51.4212 76.0655C51.0852 76.2615 50.8192 76.5275 50.6232 76.8635C50.4272 77.1995 50.3292 77.5681 50.3292 77.9695C50.3292 78.4081 50.4225 78.8048 50.6092 79.1595C50.7959 79.5141 51.0572 79.7941 51.3932 79.9995C51.7385 80.1955 52.1305 80.2935 52.5692 80.2935Z" fill="#F7F7F7"/>
<path d="M57.4555 80.2655L60.2695 77.6475L60.9135 77.0315C61.4269 76.5275 61.8142 76.1028 62.0755 75.7575C62.3369 75.4028 62.5095 75.0948 62.5935 74.8335C62.6869 74.5628 62.7335 74.2781 62.7335 73.9795C62.7335 73.4288 62.5609 72.9855 62.2155 72.6495C61.8702 72.3135 61.4035 72.1455 60.8155 72.1455C60.1995 72.1455 59.7189 72.3321 59.3735 72.7055C59.0282 73.0788 58.8182 73.6108 58.7435 74.3015C58.7435 74.3295 58.7389 74.3621 58.7295 74.3995L57.5255 74.1755C57.5349 74.1288 57.5395 74.0821 57.5395 74.0355C57.6142 73.4661 57.8009 72.9621 58.0995 72.5235C58.3982 72.0755 58.7902 71.7255 59.2755 71.4735C59.7609 71.2215 60.3022 71.0955 60.8995 71.0955C61.4969 71.0955 62.0289 71.2168 62.4955 71.4595C62.9622 71.7021 63.3262 72.0428 63.5875 72.4815C63.8582 72.9108 63.9935 73.4008 63.9935 73.9515C63.9935 74.3435 63.9282 74.7215 63.7975 75.0855C63.6669 75.4495 63.4335 75.8461 63.0975 76.2755C62.7709 76.6955 62.3182 77.1715 61.7395 77.7035C61.6182 77.8155 61.4922 77.9321 61.3615 78.0535C61.2402 78.1655 61.1095 78.2775 60.9695 78.3895L58.7435 80.2935L58.6455 80.0135H64.2595V81.1055H57.4555V80.2655Z" fill="#F7F7F7"/>
<path d="M73.9613 71.3055H75.0813L69.2013 81.1055H68.0813L73.9613 71.3055ZM67.8153 77.2415C67.3673 77.2415 66.9706 77.1108 66.6253 76.8495C66.28 76.5881 66.0093 76.2241 65.8133 75.7575C65.6173 75.2815 65.5193 74.7448 65.5193 74.1475C65.5193 73.5595 65.6173 73.0321 65.8133 72.5655C66.0093 72.0988 66.28 71.7348 66.6253 71.4735C66.9706 71.2121 67.3673 71.0815 67.8153 71.0815C68.2633 71.0815 68.6553 71.2121 68.9913 71.4735C69.3366 71.7348 69.6073 72.0988 69.8033 72.5655C69.9993 73.0228 70.0973 73.5501 70.0973 74.1475C70.0973 74.7448 69.9993 75.2815 69.8033 75.7575C69.6166 76.2241 69.3506 76.5881 69.0053 76.8495C68.66 77.1108 68.2633 77.2415 67.8153 77.2415ZM67.8153 76.3875C68.058 76.3875 68.268 76.2988 68.4453 76.1215C68.632 75.9441 68.772 75.6875 68.8653 75.3515C68.9586 75.0155 69.0053 74.6141 69.0053 74.1475C69.0053 73.4475 68.898 72.9061 68.6833 72.5235C68.478 72.1315 68.1887 71.9355 67.8153 71.9355C67.5633 71.9355 67.3486 72.0241 67.1713 72.2015C66.994 72.3695 66.8586 72.6215 66.7653 72.9575C66.672 73.2841 66.6253 73.6808 66.6253 74.1475C66.6253 74.8568 66.728 75.4075 66.9333 75.7995C67.148 76.1915 67.442 76.3875 67.8153 76.3875ZM75.3893 81.3155C74.9413 81.3155 74.5446 81.1848 74.1993 80.9235C73.854 80.6621 73.5833 80.2981 73.3873 79.8315C73.1913 79.3555 73.0933 78.8188 73.0933 78.2215C73.0933 77.6335 73.1913 77.1061 73.3873 76.6395C73.5833 76.1728 73.854 75.8088 74.1993 75.5475C74.5446 75.2861 74.9413 75.1555 75.3893 75.1555C75.8373 75.1555 76.2293 75.2861 76.5653 75.5475C76.9107 75.8088 77.1813 76.1728 77.3773 76.6395C77.5733 77.0968 77.6713 77.6241 77.6713 78.2215C77.6713 78.8188 77.5733 79.3555 77.3773 79.8315C77.1906 80.2981 76.9247 80.6621 76.5793 80.9235C76.234 81.1848 75.8373 81.3155 75.3893 81.3155ZM75.3893 80.4615C75.632 80.4615 75.842 80.3728 76.0193 80.1955C76.206 80.0181 76.346 79.7615 76.4393 79.4255C76.5326 79.0895 76.5793 78.6881 76.5793 78.2215C76.5793 77.5215 76.472 76.9801 76.2573 76.5975C76.052 76.2055 75.7626 76.0095 75.3893 76.0095C75.1373 76.0095 74.9226 76.0981 74.7453 76.2755C74.568 76.4435 74.4326 76.6955 74.3393 77.0315C74.246 77.3581 74.1993 77.7548 74.1993 78.2215C74.1993 78.9308 74.302 79.4815 74.5073 79.8735C74.722 80.2655 75.016 80.4615 75.3893 80.4615Z" fill="#F7F7F7"/>
</svg>
