<svg width="104" height="104" viewBox="0 0 104 104" fill="none" xmlns="http://www.w3.org/2000/svg">
<path d="M51.6963 0C52.2888 0 52.8791 0.0104798 53.4668 0.0302734V15.8828C53.4753 15.8832 53.4837 15.8834 53.4922 15.8838C52.8982 15.8547 52.3004 15.8398 51.6992 15.8398C31.8035 15.8399 15.6748 31.9685 15.6748 51.8643C15.6748 71.76 31.8035 87.8886 51.6992 87.8887C71.595 87.8887 87.7236 71.76 87.7236 51.8643C87.7236 38.053 79.9503 26.0591 68.541 20.0137C68.5559 20.0216 68.571 20.0292 68.5859 20.0371L75.2783 5.68359C91.952 14.2526 103.358 31.6255 103.358 51.6621C103.358 80.1943 80.2285 103.324 51.6963 103.324C23.1641 103.324 0.0341797 80.1943 0.0341797 51.6621C0.03419 23.1299 23.1641 1.03095e-05 51.6963 0Z" fill="#00B5FC"/>
<path d="M53.4668 0.0195312C61.3075 0.28359 68.7054 2.29337 75.2832 5.6748L68.5859 20.0371C64.0381 17.6191 58.9115 16.1459 53.4668 15.8828V0.0195312Z" fill="#FF0CF0"/>
</svg>
