<svg width="85" height="85" viewBox="0 0 85 85" fill="none" xmlns="http://www.w3.org/2000/svg">
<path d="M0 0.999999C0 0.447715 0.447715 0 1 0H6.32759C6.87987 0 7.32759 0.447715 7.32759 1V6.32759C7.32759 6.87987 6.87987 7.32759 6.32759 7.32759H0.999999C0.447715 7.32759 0 6.87987 0 6.32759V0.999999Z" fill="#FFBF00"/>
<path d="M0 10.7091C0 10.1568 0.447715 9.70905 1 9.70905H6.32759C6.87987 9.70905 7.32759 10.1568 7.32759 10.7091V16.0366C7.32759 16.5889 6.87987 17.0366 6.32759 17.0366H0.999999C0.447715 17.0366 0 16.5889 0 16.0366V10.7091Z" fill="#FFBF00"/>
<path d="M0 20.4181C0 19.8658 0.447715 19.4181 1 19.4181H6.32759C6.87987 19.4181 7.32759 19.8658 7.32759 20.4181V25.7457C7.32759 26.298 6.87987 26.7457 6.32759 26.7457H0.999999C0.447715 26.7457 0 26.298 0 25.7457V20.4181Z" fill="#FF0CF0"/>
<path d="M0 30.1272C0 29.5749 0.447715 29.1272 1 29.1272H6.32759C6.87987 29.1272 7.32759 29.5749 7.32759 30.1272V35.4547C7.32759 36.007 6.87987 36.4547 6.32759 36.4547H0.999999C0.447715 36.4547 0 36.007 0 35.4547V30.1272Z" fill="#FF0CF0"/>
<path d="M0 39.8361C0 39.2838 0.447715 38.8361 1 38.8361H6.32759C6.87987 38.8361 7.32759 39.2838 7.32759 39.8361V45.1637C7.32759 45.716 6.87987 46.1637 6.32759 46.1637H0.999999C0.447715 46.1637 0 45.716 0 45.1637V39.8361Z" fill="#FF0CF0"/>
<path d="M0 49.5453C0 48.993 0.447715 48.5453 1 48.5453H6.32759C6.87987 48.5453 7.32759 48.993 7.32759 49.5453V54.8728C7.32759 55.4251 6.87987 55.8728 6.32759 55.8728H0.999999C0.447715 55.8728 0 55.4251 0 54.8728V49.5453Z" fill="#00B5FC"/>
<path d="M0 59.2543C0 58.702 0.447715 58.2543 1 58.2543H6.32759C6.87987 58.2543 7.32759 58.702 7.32759 59.2543V64.5819C7.32759 65.1342 6.87987 65.5819 6.32759 65.5819H0.999999C0.447715 65.5819 0 65.1342 0 64.5819V59.2543Z" fill="#00B5FC"/>
<path d="M0 68.9634C0 68.4111 0.447715 67.9634 1 67.9634H6.32759C6.87987 67.9634 7.32759 68.4111 7.32759 68.9634V74.2909C7.32759 74.8432 6.87987 75.2909 6.32759 75.2909H0.999999C0.447715 75.2909 0 74.8432 0 74.2909V68.9634Z" fill="#00B5FC"/>
<path d="M0 78.6724C0 78.1201 0.447715 77.6724 1 77.6724H6.32759C6.87987 77.6724 7.32759 78.1201 7.32759 78.6724V84C7.32759 84.5523 6.87987 85 6.32759 85H0.999999C0.447715 85 0 84.5523 0 84V78.6724Z" fill="#00B5FC"/>
<path d="M11.0961 0.999999C11.0961 0.447715 11.5438 0 12.0961 0H17.4236C17.9759 0 18.4236 0.447715 18.4236 1V6.32759C18.4236 6.87987 17.9759 7.32759 17.4236 7.32759H12.0961C11.5438 7.32759 11.0961 6.87987 11.0961 6.32759V0.999999Z" fill="#FFBF00"/>
<path d="M11.0961 10.7091C11.0961 10.1568 11.5438 9.70905 12.0961 9.70905H17.4236C17.9759 9.70905 18.4236 10.1568 18.4236 10.7091V16.0366C18.4236 16.5889 17.9759 17.0366 17.4236 17.0366H12.0961C11.5438 17.0366 11.0961 16.5889 11.0961 16.0366V10.7091Z" fill="#FFBF00"/>
<path d="M11.0961 20.4181C11.0961 19.8658 11.5438 19.4181 12.0961 19.4181H17.4236C17.9759 19.4181 18.4236 19.8658 18.4236 20.4181V25.7457C18.4236 26.298 17.9759 26.7457 17.4236 26.7457H12.0961C11.5438 26.7457 11.0961 26.298 11.0961 25.7457V20.4181Z" fill="#FF0CF0"/>
<path d="M11.0961 30.1272C11.0961 29.5749 11.5438 29.1272 12.0961 29.1272H17.4236C17.9759 29.1272 18.4236 29.5749 18.4236 30.1272V35.4547C18.4236 36.007 17.9759 36.4547 17.4236 36.4547H12.0961C11.5438 36.4547 11.0961 36.007 11.0961 35.4547V30.1272Z" fill="#FF0CF0"/>
<path d="M11.0961 39.8362C11.0961 39.2839 11.5438 38.8362 12.0961 38.8362H17.4236C17.9759 38.8362 18.4236 39.2839 18.4236 39.8362V45.1638C18.4236 45.7161 17.9759 46.1638 17.4236 46.1638H12.0961C11.5438 46.1638 11.0961 45.7161 11.0961 45.1638V39.8362Z" fill="#FF0CF0"/>
<path d="M11.0961 49.5453C11.0961 48.993 11.5438 48.5453 12.0961 48.5453H17.4236C17.9759 48.5453 18.4236 48.993 18.4236 49.5453V54.8728C18.4236 55.4251 17.9759 55.8728 17.4236 55.8728H12.0961C11.5438 55.8728 11.0961 55.4251 11.0961 54.8728V49.5453Z" fill="#00B5FC"/>
<path d="M11.0961 59.2543C11.0961 58.702 11.5438 58.2543 12.0961 58.2543H17.4236C17.9759 58.2543 18.4236 58.702 18.4236 59.2543V64.5819C18.4236 65.1342 17.9759 65.5819 17.4236 65.5819H12.0961C11.5438 65.5819 11.0961 65.1342 11.0961 64.5819V59.2543Z" fill="#00B5FC"/>
<path d="M11.0961 68.9634C11.0961 68.4111 11.5438 67.9634 12.0961 67.9634H17.4236C17.9759 67.9634 18.4236 68.4111 18.4236 68.9634V74.2909C18.4236 74.8432 17.9759 75.2909 17.4236 75.2909H12.0961C11.5438 75.2909 11.0961 74.8432 11.0961 74.2909V68.9634Z" fill="#00B5FC"/>
<path d="M11.0961 78.6724C11.0961 78.1201 11.5438 77.6724 12.0961 77.6724H17.4236C17.9759 77.6724 18.4236 78.1201 18.4236 78.6724V84C18.4236 84.5523 17.9759 85 17.4236 85H12.0961C11.5438 85 11.0961 84.5523 11.0961 84V78.6724Z" fill="#00B5FC"/>
<path d="M22.1921 0.999999C22.1921 0.447715 22.6398 0 23.1921 0H28.5197C29.072 0 29.5197 0.447715 29.5197 1V6.32759C29.5197 6.87987 29.072 7.32759 28.5197 7.32759H23.1921C22.6398 7.32759 22.1921 6.87987 22.1921 6.32759V0.999999Z" fill="#FFBF00"/>
<path d="M22.1921 10.7091C22.1921 10.1568 22.6398 9.70905 23.1921 9.70905H28.5197C29.072 9.70905 29.5197 10.1568 29.5197 10.7091V16.0366C29.5197 16.5889 29.072 17.0366 28.5197 17.0366H23.1921C22.6398 17.0366 22.1921 16.5889 22.1921 16.0366V10.7091Z" fill="#FFBF00"/>
<path d="M22.1921 20.4181C22.1921 19.8658 22.6398 19.4181 23.1921 19.4181H28.5197C29.072 19.4181 29.5197 19.8658 29.5197 20.4181V25.7457C29.5197 26.298 29.072 26.7457 28.5197 26.7457H23.1921C22.6398 26.7457 22.1921 26.298 22.1921 25.7457V20.4181Z" fill="#FF0CF0"/>
<path d="M22.1921 30.1272C22.1921 29.5749 22.6398 29.1272 23.1921 29.1272H28.5197C29.072 29.1272 29.5197 29.5749 29.5197 30.1272V35.4547C29.5197 36.007 29.072 36.4547 28.5197 36.4547H23.1921C22.6398 36.4547 22.1921 36.007 22.1921 35.4547V30.1272Z" fill="#FF0CF0"/>
<path d="M22.1921 39.8362C22.1921 39.2839 22.6398 38.8362 23.1921 38.8362H28.5197C29.072 38.8362 29.5197 39.2839 29.5197 39.8362V45.1638C29.5197 45.7161 29.072 46.1638 28.5197 46.1638H23.1921C22.6398 46.1638 22.1921 45.7161 22.1921 45.1638V39.8362Z" fill="#FF0CF0"/>
<path d="M22.1921 49.5453C22.1921 48.993 22.6398 48.5453 23.1921 48.5453H28.5197C29.072 48.5453 29.5197 48.993 29.5197 49.5453V54.8728C29.5197 55.4251 29.072 55.8728 28.5197 55.8728H23.1921C22.6398 55.8728 22.1921 55.4251 22.1921 54.8728V49.5453Z" fill="#00B5FC"/>
<path d="M22.1921 59.2543C22.1921 58.702 22.6398 58.2543 23.1921 58.2543H28.5197C29.072 58.2543 29.5197 58.702 29.5197 59.2543V64.5819C29.5197 65.1342 29.072 65.5819 28.5197 65.5819H23.1921C22.6398 65.5819 22.1921 65.1342 22.1921 64.5819V59.2543Z" fill="#00B5FC"/>
<path d="M22.1921 68.9634C22.1921 68.4111 22.6398 67.9634 23.1921 67.9634H28.5197C29.072 67.9634 29.5197 68.4111 29.5197 68.9634V74.2909C29.5197 74.8432 29.072 75.2909 28.5197 75.2909H23.1921C22.6398 75.2909 22.1921 74.8432 22.1921 74.2909V68.9634Z" fill="#00B5FC"/>
<path d="M22.1921 78.6724C22.1921 78.1201 22.6398 77.6724 23.1921 77.6724H28.5197C29.072 77.6724 29.5197 78.1201 29.5197 78.6724V84C29.5197 84.5523 29.072 85 28.5197 85H23.1921C22.6398 85 22.1921 84.5523 22.1921 84V78.6724Z" fill="#00B5FC"/>
<path d="M33.2882 0.999999C33.2882 0.447715 33.7359 0 34.2882 0H39.6158C40.168 0 40.6158 0.447715 40.6158 1V6.32759C40.6158 6.87987 40.168 7.32759 39.6158 7.32759H34.2882C33.7359 7.32759 33.2882 6.87987 33.2882 6.32759V0.999999Z" fill="#FFBF00"/>
<path d="M33.2882 10.7091C33.2882 10.1568 33.7359 9.70905 34.2882 9.70905H39.6158C40.168 9.70905 40.6158 10.1568 40.6158 10.7091V16.0366C40.6158 16.5889 40.168 17.0366 39.6158 17.0366H34.2882C33.7359 17.0366 33.2882 16.5889 33.2882 16.0366V10.7091Z" fill="#FFBF00"/>
<path d="M33.2882 20.4181C33.2882 19.8658 33.7359 19.4181 34.2882 19.4181H39.6158C40.168 19.4181 40.6158 19.8658 40.6158 20.4181V25.7457C40.6158 26.298 40.168 26.7457 39.6158 26.7457H34.2882C33.7359 26.7457 33.2882 26.298 33.2882 25.7457V20.4181Z" fill="#FF0CF0"/>
<path d="M33.2882 30.1272C33.2882 29.5749 33.7359 29.1272 34.2882 29.1272H39.6158C40.168 29.1272 40.6158 29.5749 40.6158 30.1272V35.4547C40.6158 36.007 40.168 36.4547 39.6158 36.4547H34.2882C33.7359 36.4547 33.2882 36.007 33.2882 35.4547V30.1272Z" fill="#FF0CF0"/>
<path d="M33.2882 39.8362C33.2882 39.2839 33.7359 38.8362 34.2882 38.8362H39.6158C40.168 38.8362 40.6158 39.2839 40.6158 39.8362V45.1638C40.6158 45.7161 40.168 46.1638 39.6158 46.1638H34.2882C33.7359 46.1638 33.2882 45.7161 33.2882 45.1638V39.8362Z" fill="#FF0CF0"/>
<path d="M33.2882 49.5453C33.2882 48.993 33.7359 48.5453 34.2882 48.5453H39.6158C40.168 48.5453 40.6158 48.993 40.6158 49.5453V54.8728C40.6158 55.4251 40.168 55.8728 39.6158 55.8728H34.2882C33.7359 55.8728 33.2882 55.4251 33.2882 54.8728V49.5453Z" fill="#00B5FC"/>
<path d="M33.2882 59.2543C33.2882 58.702 33.7359 58.2543 34.2882 58.2543H39.6158C40.168 58.2543 40.6158 58.702 40.6158 59.2543V64.5819C40.6158 65.1342 40.168 65.5819 39.6158 65.5819H34.2882C33.7359 65.5819 33.2882 65.1342 33.2882 64.5819V59.2543Z" fill="#00B5FC"/>
<path d="M33.2882 68.9634C33.2882 68.4111 33.7359 67.9634 34.2882 67.9634H39.6158C40.168 67.9634 40.6158 68.4111 40.6158 68.9634V74.2909C40.6158 74.8432 40.168 75.2909 39.6158 75.2909H34.2882C33.7359 75.2909 33.2882 74.8432 33.2882 74.2909V68.9634Z" fill="#00B5FC"/>
<path d="M44.3842 0.999999C44.3842 0.447715 44.832 0 45.3842 0H50.7118C51.2641 0 51.7118 0.447715 51.7118 1V6.32759C51.7118 6.87987 51.2641 7.32759 50.7118 7.32759H45.3842C44.832 7.32759 44.3842 6.87987 44.3842 6.32759V0.999999Z" fill="#FFBF00"/>
<path d="M44.3842 10.7091C44.3842 10.1568 44.832 9.70905 45.3842 9.70905H50.7118C51.2641 9.70905 51.7118 10.1568 51.7118 10.7091V16.0366C51.7118 16.5889 51.2641 17.0366 50.7118 17.0366H45.3842C44.832 17.0366 44.3842 16.5889 44.3842 16.0366V10.7091Z" fill="#FFBF00"/>
<path d="M44.3842 20.4181C44.3842 19.8658 44.832 19.4181 45.3842 19.4181H50.7118C51.2641 19.4181 51.7118 19.8658 51.7118 20.4181V25.7457C51.7118 26.298 51.2641 26.7457 50.7118 26.7457H45.3842C44.832 26.7457 44.3842 26.298 44.3842 25.7457V20.4181Z" fill="#FF0CF0"/>
<path d="M44.3842 30.1272C44.3842 29.5749 44.832 29.1272 45.3842 29.1272H50.7118C51.2641 29.1272 51.7118 29.5749 51.7118 30.1272V35.4547C51.7118 36.007 51.2641 36.4547 50.7118 36.4547H45.3842C44.832 36.4547 44.3842 36.007 44.3842 35.4547V30.1272Z" fill="#FF0CF0"/>
<path d="M44.3842 39.8362C44.3842 39.2839 44.832 38.8362 45.3842 38.8362H50.7118C51.2641 38.8362 51.7118 39.2839 51.7118 39.8362V45.1638C51.7118 45.7161 51.2641 46.1638 50.7118 46.1638H45.3842C44.832 46.1638 44.3842 45.7161 44.3842 45.1638V39.8362Z" fill="#00B5FC"/>
<path d="M44.3842 49.5453C44.3842 48.993 44.832 48.5453 45.3842 48.5453H50.7118C51.2641 48.5453 51.7118 48.993 51.7118 49.5453V54.8728C51.7118 55.4251 51.2641 55.8728 50.7118 55.8728H45.3842C44.832 55.8728 44.3842 55.4251 44.3842 54.8728V49.5453Z" fill="#00B5FC"/>
<path d="M44.3842 59.2543C44.3842 58.702 44.832 58.2543 45.3842 58.2543H50.7118C51.2641 58.2543 51.7118 58.702 51.7118 59.2543V64.5819C51.7118 65.1342 51.2641 65.5819 50.7118 65.5819H45.3842C44.832 65.5819 44.3842 65.1342 44.3842 64.5819V59.2543Z" fill="#00B5FC"/>
<path d="M44.3842 68.9634C44.3842 68.4111 44.832 67.9634 45.3842 67.9634H50.7118C51.2641 67.9634 51.7118 68.4111 51.7118 68.9634V74.2909C51.7118 74.8432 51.2641 75.2909 50.7118 75.2909H45.3842C44.832 75.2909 44.3842 74.8432 44.3842 74.2909V68.9634Z" fill="#00B5FC"/>
<path d="M55.4803 0.999999C55.4803 0.447715 55.928 0 56.4803 0H61.8079C62.3602 0 62.8079 0.447715 62.8079 1V6.32759C62.8079 6.87987 62.3602 7.32759 61.8079 7.32759H56.4803C55.928 7.32759 55.4803 6.87987 55.4803 6.32759V0.999999Z" fill="#FFBF00"/>
<path d="M55.4803 10.7091C55.4803 10.1568 55.928 9.70905 56.4803 9.70905H61.8079C62.3602 9.70905 62.8079 10.1568 62.8079 10.7091V16.0366C62.8079 16.5889 62.3602 17.0366 61.8079 17.0366H56.4803C55.928 17.0366 55.4803 16.5889 55.4803 16.0366V10.7091Z" fill="#FFBF00"/>
<path d="M55.4803 20.4181C55.4803 19.8658 55.928 19.4181 56.4803 19.4181H61.8079C62.3602 19.4181 62.8079 19.8658 62.8079 20.4181V25.7457C62.8079 26.298 62.3602 26.7457 61.8079 26.7457H56.4803C55.928 26.7457 55.4803 26.298 55.4803 25.7457V20.4181Z" fill="#FF0CF0"/>
<path d="M55.4803 30.1272C55.4803 29.5749 55.928 29.1272 56.4803 29.1272H61.8079C62.3602 29.1272 62.8079 29.5749 62.8079 30.1272V35.4547C62.8079 36.007 62.3602 36.4547 61.8079 36.4547H56.4803C55.928 36.4547 55.4803 36.007 55.4803 35.4547V30.1272Z" fill="#FF0CF0"/>
<path d="M55.4803 39.8362C55.4803 39.2839 55.928 38.8362 56.4803 38.8362H61.8079C62.3602 38.8362 62.8079 39.2839 62.8079 39.8362V45.1638C62.8079 45.7161 62.3602 46.1638 61.8079 46.1638H56.4803C55.928 46.1638 55.4803 45.7161 55.4803 45.1638V39.8362Z" fill="#00B5FC"/>
<path d="M55.4803 49.5453C55.4803 48.993 55.928 48.5453 56.4803 48.5453H61.8079C62.3602 48.5453 62.8079 48.993 62.8079 49.5453V54.8728C62.8079 55.4251 62.3602 55.8728 61.8079 55.8728H56.4803C55.928 55.8728 55.4803 55.4251 55.4803 54.8728V49.5453Z" fill="#00B5FC"/>
<path d="M55.4803 59.2543C55.4803 58.702 55.928 58.2543 56.4803 58.2543H61.8079C62.3602 58.2543 62.8079 58.702 62.8079 59.2543V64.5819C62.8079 65.1342 62.3602 65.5819 61.8079 65.5819H56.4803C55.928 65.5819 55.4803 65.1342 55.4803 64.5819V59.2543Z" fill="#00B5FC"/>
<path d="M55.4803 68.9634C55.4803 68.4111 55.928 67.9634 56.4803 67.9634H61.8079C62.3602 67.9634 62.8079 68.4111 62.8079 68.9634V74.2909C62.8079 74.8432 62.3602 75.2909 61.8079 75.2909H56.4803C55.928 75.2909 55.4803 74.8432 55.4803 74.2909V68.9634Z" fill="#00B5FC"/>
<path d="M66.5764 0.999999C66.5764 0.447715 67.0241 0 67.5764 0H72.9039C73.4562 0 73.9039 0.447715 73.9039 1V6.32759C73.9039 6.87987 73.4562 7.32759 72.9039 7.32759H67.5764C67.0241 7.32759 66.5764 6.87987 66.5764 6.32759V0.999999Z" fill="#FFBF00"/>
<path d="M66.5764 10.7091C66.5764 10.1568 67.0241 9.70905 67.5764 9.70905H72.9039C73.4562 9.70905 73.9039 10.1568 73.9039 10.7091V16.0366C73.9039 16.5889 73.4562 17.0366 72.9039 17.0366H67.5764C67.0241 17.0366 66.5764 16.5889 66.5764 16.0366V10.7091Z" fill="#FF0CF0"/>
<path d="M66.5764 20.4181C66.5764 19.8658 67.0241 19.4181 67.5764 19.4181H72.9039C73.4562 19.4181 73.9039 19.8658 73.9039 20.4181V25.7457C73.9039 26.298 73.4562 26.7457 72.9039 26.7457H67.5764C67.0241 26.7457 66.5764 26.298 66.5764 25.7457V20.4181Z" fill="#FF0CF0"/>
<path d="M66.5764 30.1272C66.5764 29.5749 67.0241 29.1272 67.5764 29.1272H72.9039C73.4562 29.1272 73.9039 29.5749 73.9039 30.1272V35.4547C73.9039 36.007 73.4562 36.4547 72.9039 36.4547H67.5764C67.0241 36.4547 66.5764 36.007 66.5764 35.4547V30.1272Z" fill="#FF0CF0"/>
<path d="M66.5764 39.8362C66.5764 39.2839 67.0241 38.8362 67.5764 38.8362H72.9039C73.4562 38.8362 73.9039 39.2839 73.9039 39.8362V45.1638C73.9039 45.7161 73.4562 46.1638 72.9039 46.1638H67.5764C67.0241 46.1638 66.5764 45.7161 66.5764 45.1638V39.8362Z" fill="#00B5FC"/>
<path d="M66.5764 49.5453C66.5764 48.993 67.0241 48.5453 67.5764 48.5453H72.9039C73.4562 48.5453 73.9039 48.993 73.9039 49.5453V54.8728C73.9039 55.4251 73.4562 55.8728 72.9039 55.8728H67.5764C67.0241 55.8728 66.5764 55.4251 66.5764 54.8728V49.5453Z" fill="#00B5FC"/>
<path d="M66.5764 59.2543C66.5764 58.702 67.0241 58.2543 67.5764 58.2543H72.9039C73.4562 58.2543 73.9039 58.702 73.9039 59.2543V64.5819C73.9039 65.1342 73.4562 65.5819 72.9039 65.5819H67.5764C67.0241 65.5819 66.5764 65.1342 66.5764 64.5819V59.2543Z" fill="#00B5FC"/>
<path d="M66.5764 68.9634C66.5764 68.4111 67.0241 67.9634 67.5764 67.9634H72.9039C73.4562 67.9634 73.9039 68.4111 73.9039 68.9634V74.2909C73.9039 74.8432 73.4562 75.2909 72.9039 75.2909H67.5764C67.0241 75.2909 66.5764 74.8432 66.5764 74.2909V68.9634Z" fill="#00B5FC"/>
<path d="M77.6724 0.999999C77.6724 0.447715 78.1201 0 78.6724 0H84C84.5523 0 85 0.447715 85 1V6.32759C85 6.87987 84.5523 7.32759 84 7.32759H78.6724C78.1201 7.32759 77.6724 6.87987 77.6724 6.32759V0.999999Z" fill="#FFBF00"/>
<path d="M77.6724 10.7091C77.6724 10.1568 78.1201 9.70905 78.6724 9.70905H84C84.5523 9.70905 85 10.1568 85 10.7091V16.0366C85 16.5889 84.5523 17.0366 84 17.0366H78.6724C78.1201 17.0366 77.6724 16.5889 77.6724 16.0366V10.7091Z" fill="#FF0CF0"/>
<path d="M77.6724 20.4181C77.6724 19.8658 78.1201 19.4181 78.6724 19.4181H84C84.5523 19.4181 85 19.8658 85 20.4181V25.7457C85 26.298 84.5523 26.7457 84 26.7457H78.6724C78.1201 26.7457 77.6724 26.298 77.6724 25.7457V20.4181Z" fill="#FF0CF0"/>
<path d="M77.6724 30.1272C77.6724 29.5749 78.1201 29.1272 78.6724 29.1272H84C84.5523 29.1272 85 29.5749 85 30.1272V35.4547C85 36.007 84.5523 36.4547 84 36.4547H78.6724C78.1201 36.4547 77.6724 36.007 77.6724 35.4547V30.1272Z" fill="#FF0CF0"/>
<path d="M77.6724 39.8362C77.6724 39.2839 78.1201 38.8362 78.6724 38.8362H84C84.5523 38.8362 85 39.2839 85 39.8362V45.1638C85 45.7161 84.5523 46.1638 84 46.1638H78.6724C78.1201 46.1638 77.6724 45.7161 77.6724 45.1638V39.8362Z" fill="#00B5FC"/>
<path d="M77.6724 49.5453C77.6724 48.993 78.1201 48.5453 78.6724 48.5453H84C84.5523 48.5453 85 48.993 85 49.5453V54.8728C85 55.4251 84.5523 55.8728 84 55.8728H78.6724C78.1201 55.8728 77.6724 55.4251 77.6724 54.8728V49.5453Z" fill="#00B5FC"/>
<path d="M77.6724 59.2543C77.6724 58.702 78.1201 58.2543 78.6724 58.2543H84C84.5523 58.2543 85 58.702 85 59.2543V64.5819C85 65.1342 84.5523 65.5819 84 65.5819H78.6724C78.1201 65.5819 77.6724 65.1342 77.6724 64.5819V59.2543Z" fill="#00B5FC"/>
<path d="M77.6724 68.9634C77.6724 68.4111 78.1201 67.9634 78.6724 67.9634H84C84.5523 67.9634 85 68.4111 85 68.9634V74.2909C85 74.8432 84.5523 75.2909 84 75.2909H78.6724C78.1201 75.2909 77.6724 74.8432 77.6724 74.2909V68.9634Z" fill="#00B5FC"/>
</svg>
