<svg width="65" height="93" viewBox="0 0 65 93" fill="none" xmlns="http://www.w3.org/2000/svg">
<path fill-rule="evenodd" clip-rule="evenodd" d="M28.3981 83.072V92.16H32.2381V83.072C36.1635 82.7307 39.6621 81.6213 42.7341 79.744C45.8061 77.7813 48.2381 75.3493 50.0301 72.448C51.8221 69.5467 52.7181 66.4747 52.7181 63.232C52.7181 60.16 51.9501 57.3867 50.4141 54.912C48.8781 52.352 46.8728 49.92 44.3981 47.616C41.9235 45.312 39.2355 43.0507 36.3341 40.832C33.5181 38.528 30.8301 36.1813 28.2701 33.792C27.6728 33.1947 27.2888 32.6827 27.1181 32.256C27.0328 31.744 26.9901 31.1893 26.9901 30.592C26.9901 29.6533 27.3315 28.8427 28.0141 28.16C28.6968 27.4773 29.4648 27.136 30.3181 27.136C31.2568 27.136 32.0675 27.4773 32.7501 28.16C33.4328 28.8427 33.7741 29.6533 33.7741 30.592V38.528H52.7181V31.36C52.7181 27.4347 51.8221 23.8507 50.0301 20.608C48.2381 17.3653 45.7635 14.72 42.6061 12.672C39.5341 10.5387 36.0781 9.344 32.2381 9.088V0H28.3981V8.96C22.5955 9.30133 17.7315 11.1787 13.8061 14.592C9.88079 18.0053 7.91813 22.8267 7.91813 29.056C7.91813 32.2987 8.81413 35.1573 10.6061 37.632C12.4835 40.1067 14.7448 42.4107 17.3901 44.544L25.5821 50.688C28.3128 52.736 30.5741 54.912 32.3661 57.216C33.3048 58.4107 33.7741 59.8187 33.7741 61.44C33.7741 62.2933 33.4328 63.104 32.7501 63.872C32.0675 64.5547 31.2568 64.896 30.3181 64.896C29.3795 64.896 28.5688 64.5547 27.8861 63.872C27.2888 63.104 26.9901 62.2933 26.9901 61.44V51.968H7.91813V60.8C7.91813 64.7253 8.81413 68.3093 10.6061 71.552C12.4835 74.7947 14.9581 77.44 18.0301 79.488C21.1021 81.536 24.5581 82.7307 28.3981 83.072ZM32.08 44.7545L29.152 48.76L32.08 52.7655L35.008 48.76L32.08 44.7545Z" fill="#00B5FC"/>
<path fill-rule="evenodd" clip-rule="evenodd" d="M58.304 8.88H64.16L35.008 48.76L32.08 44.7545L58.304 8.88ZM29.152 48.76L0 88.64H5.856L32.08 52.7655L29.152 48.76Z" fill="#FFBF00"/>
<path fill-rule="evenodd" clip-rule="evenodd" d="M5.856 8.88H0L29.152 48.76L32.08 44.7545L5.856 8.88ZM35.008 48.76L32.08 52.7655L58.304 88.64H64.16L35.008 48.76Z" fill="#FFBF00"/>
<path d="M29.152 48.76L32.08 44.7545L35.008 48.76L32.08 52.7655L29.152 48.76Z" fill="#FFBF00"/>
</svg>
