<svg xmlns="http://www.w3.org/2000/svg" viewBox="0 0 180 180">
  <rect width="180" height="180" fill="#f7f7f7" />
  <g transform="translate(18 43) scale(3.6)">
    <path fill="#131313" d="M6.5 23.8c-1.9-1.1-3.4-2.7-4.6-4.6C.8 17.3.2 15.2.2 12.9s.6-4.3 1.7-6.3c1.1-1.9 2.6-3.4 4.6-4.6s4-1.5 6.3-1.5v25.1c-2.3 0-4.3-.6-6.3-1.7Z"/>
    <path fill="#131313" d="M17.8 11.2c-.9-.5-1.6-1.2-2.1-2.1s-.8-1.9-.8-2.9.3-2 .8-2.9 1.2-1.6 2.1-2.1c.9-.5 1.9-.8 2.9-.8s2 .3 2.9.8 1.6 1.2 2.1 2.1c.5.9.8 1.9.8 2.9s-.3 2-.8 2.9-1.2 1.6-2.1 2.1-1.9.8-2.9.8-2-.3-2.9-.8ZM17.8 24.9c-.9-.5-1.6-1.2-2.1-2.1s-.8-1.9-.8-2.9.3-2.1.8-3 1.2-1.6 2.1-2.1 1.9-.8 2.9-.8 2 .3 2.9.8 1.6 1.2 2.1 2.1c.5.9.8 1.9.8 3s-.3 2-.8 2.9-1.2 1.6-2.1 2.1-1.9.8-2.9.8-2-.3-2.9-.8Z"/>
    <path fill="#131313" d="M27.2 25.5 33.5.5l6.3 25H27.2Z"/>
  </g>
</svg>
