<svg xmlns="http://www.w3.org/2000/svg" viewBox="0 0 32 32">
  <rect width="32" height="32" fill="#f7f7f7" />
  <path fill="#131313" d="M13.1 14.15c-.9-.5-1.6-1.2-2.1-2.1s-.8-1.9-.8-2.9.3-2 .8-2.9 1.2-1.6 2.1-2.1c.9-.5 1.9-.8 2.9-.8s2 .3 2.9.8 1.6 1.2 2.1 2.1c.5.9.8 1.9.8 2.9s-.3 2-.8 2.9-1.2 1.6-2.1 2.1-1.9.8-2.9.8-2-.3-2.9-.8Zm0 13.7c-.9-.5-1.6-1.2-2.1-2.1s-.8-1.9-.8-2.9.3-2.1.8-3 1.2-1.6 2.1-2.1 1.9-.8 2.9-.8 2 .3 2.9.8 1.6 1.2 2.1 2.1c.5.9.8 1.9.8 3s-.3 2-.8 2.9-1.2 1.6-2.1 2.1-1.9.8-2.9.8-2-.3-2.9-.8Z" />
</svg>
